<?xml version="1.0" standalone="no"?>
<!DOCTYPE svg PUBLIC "-//W3C//DTD SVG 20010904//EN"
 "http://www.w3.org/TR/2001/REC-SVG-20010904/DTD/svg10.dtd">
<svg version="1.0" xmlns="http://www.w3.org/2000/svg"
 width="16.000000pt" height="16.000000pt" viewBox="0 0 16.000000 16.000000"
 preserveAspectRatio="xMidYMid meet">
<metadata>
Created by potrace 1.11, written by Peter Selinger 2001-2013
</metadata>
<g transform="translate(0.000000,16.000000) scale(0.004000,-0.004000)"
fill="#000000" stroke="none">
<path d="M1221 2443 c-14 -81 -58 -177 -100 -217 -23 -22 -43 -30 -80 -34 -91
-8 -129 23 -212 176 -50 92 -57 82 -22 -33 48 -156 125 -223 247 -218 68 4
138 82 169 188 13 46 24 205 14 205 -3 0 -10 -30 -16 -67z"/>
<path d="M1810 2360 c-35 -78 -70 -145 -79 -150 -18 -10 -16 -11 34 -12 19 -1
38 2 42 5 3 4 -1 7 -10 7 -17 0 -22 25 -11 54 5 12 20 16 58 16 47 0 54 -3 64
-25 16 -35 15 -45 -5 -45 -9 0 -13 -3 -9 -7 7 -7 126 -11 126 -4 0 2 -6 12
-14 20 -7 9 -39 76 -71 149 -32 72 -58 132 -60 132 -1 0 -30 -63 -65 -140z
m59 -13 c6 -17 12 -36 13 -41 2 -5 -14 -9 -35 -10 -42 -1 -45 7 -20 58 19 40
27 39 42 -7z"/>
<path d="M993 2399 c-46 -17 -58 -94 -21 -129 30 -27 62 -25 87 6 49 62 2 148
-66 123z"/>
<path d="M2050 2398 c0 -5 4 -8 9 -8 4 0 7 -44 6 -98 l-2 -98 59 3 c32 2 69
10 83 19 54 35 54 133 -1 169 -25 16 -154 27 -154 13z m120 -23 c21 -26 25
-111 6 -140 -22 -33 -56 -34 -57 0 -6 148 -5 155 17 155 12 0 27 -7 34 -15z"/>
<path d="M2274 2395 c17 -40 89 -201 92 -204 2 -2 8 7 13 20 8 21 80 175 88
189 2 3 -5 6 -16 6 -12 0 -18 -7 -18 -21 0 -31 -42 -120 -52 -109 -17 20 -49
112 -41 120 5 5 -9 9 -31 9 -23 0 -38 -4 -35 -10z"/>
<path d="M2680 2400 c0 -3 5 -11 11 -17 7 -7 10 -44 8 -100 -4 -86 -3 -89 18
-89 19 0 21 2 9 16 -8 9 -14 42 -14 85 -1 56 2 67 11 55 7 -9 39 -49 72 -90
l60 -74 3 99 c1 54 7 104 12 109 5 7 0 11 -16 11 -18 0 -22 -4 -18 -15 4 -8 8
-37 8 -64 l2 -48 -21 24 c-11 13 -34 41 -50 62 -23 28 -39 38 -63 40 -18 1
-32 -1 -32 -4z"/>
<path d="M2964 2394 c-79 -39 -78 -157 1 -190 19 -8 43 -14 54 -14 30 0 71 21
71 37 0 12 -3 11 -16 -1 -25 -26 -81 -20 -100 9 -22 34 -15 122 12 142 30 22
70 16 93 -14 l20 -28 1 39 c0 30 -3 36 -13 28 -8 -7 -18 -7 -27 -2 -22 14 -61
12 -96 -6z"/>
<path d="M3123 2397 c-2 -4 1 -6 9 -5 10 2 13 -20 14 -97 l2 -99 75 -1 c75 0
76 0 80 28 4 32 -3 35 -21 7 -8 -14 -23 -20 -47 -20 -35 0 -35 0 -35 45 0 48
18 54 38 12 9 -18 11 -13 11 33 0 47 -2 52 -11 33 -18 -37 -38 -28 -38 17 0
37 2 40 27 40 15 0 36 -9 48 -20 l22 -20 -3 22 c-1 13 -3 25 -3 28 -2 8 -163
6 -168 -3z"/>
<path d="M3333 2396 c-3 -5 -1 -6 5 -2 14 9 14 12 16 -89 3 -88 -1 -108 -17
-98 -5 3 -7 2 -4 -3 8 -13 127 -8 153 7 66 35 62 151 -7 179 -36 15 -138 19
-146 6z m130 -29 c18 -28 16 -119 -3 -142 -7 -9 -23 -15 -34 -13 -19 3 -21 10
-21 90 0 83 1 88 21 88 12 0 29 -10 37 -23z"/>
<path d="M2531 2357 c-11 -24 -31 -69 -45 -99 -14 -30 -26 -57 -26 -59 0 -2
11 -4 24 -4 18 0 22 3 14 12 -5 7 -7 20 -4 30 5 17 32 22 77 14 11 -2 17 -39
8 -48 -5 -5 3 -8 19 -7 15 1 36 3 46 3 17 1 18 3 4 19 -9 9 -30 52 -48 94 -17
43 -36 81 -41 84 -5 3 -18 -15 -28 -39z m24 -64 c5 -20 3 -23 -19 -23 -30 0
-30 0 -14 35 12 27 22 24 33 -12z"/>
<path d="M760 2277 c0 -156 -112 -212 -269 -133 -39 20 -81 36 -94 36 -42 0
-84 -63 -106 -155 -35 -149 -149 -148 -232 3 -32 59 -36 38 -6 -29 45 -99 124
-161 177 -139 58 24 94 85 106 181 8 67 27 99 58 99 13 0 58 -21 100 -47 155
-94 262 -60 302 96 12 50 3 105 -22 131 -12 12 -14 7 -14 -43z"/>
<path d="M580 2290 c-55 -55 13 -165 76 -122 36 24 44 88 14 120 -26 27 -64
28 -90 2z"/>
<path d="M1284 2076 c11 -111 49 -165 118 -166 48 0 86 32 127 109 38 71 29
82 -13 15 -34 -54 -63 -75 -107 -76 -42 -1 -72 33 -95 109 -26 86 -38 89 -30
9z"/>
<path d="M1382 2104 c-29 -20 -30 -74 -2 -99 17 -15 24 -16 49 -5 38 15 50 60
27 95 -19 29 -42 32 -74 9z"/>
<path d="M1745 2096 c16 -11 18 -29 19 -132 1 -98 -1 -121 -15 -135 -16 -16
-12 -17 51 -17 63 0 67 1 51 17 -13 13 -19 72 -12 121 1 5 47 5 88 1 13 -1 16
-83 3 -117 -9 -22 -7 -22 58 -22 54 1 63 3 45 11 -22 10 -23 15 -23 139 0 124
1 129 23 138 16 6 0 9 -58 9 -52 0 -73 -3 -59 -9 17 -7 20 -18 22 -67 l1 -60
-52 1 -51 2 1 47 c1 73 2 75 21 80 9 3 -16 5 -57 6 -65 1 -72 -1 -56 -13z"/>
<path d="M1035 2078 c-101 -28 -170 -189 -191 -446 l-6 -82 31 0 c29 0 31 2
32 38 1 41 2 55 13 123 13 84 17 100 36 151 24 62 66 126 90 133 23 7 68 -1
86 -16 35 -29 92 -195 125 -367 6 -34 16 -61 22 -59 6 2 21 42 33 90 36 135
72 189 112 168 27 -14 65 -98 87 -188 16 -68 23 -81 37 -68 6 6 -16 132 -31
182 -17 57 -53 112 -84 126 -60 30 -109 -12 -137 -117 l-17 -61 -12 67 c-24
137 -72 259 -120 302 -26 24 -71 34 -106 24z"/>
<path d="M147 2062 c-21 -23 -22 -61 -1 -90 32 -46 99 -9 90 50 -6 36 -13 45
-46 53 -18 4 -31 1 -43 -13z"/>
<path d="M3203 2015 c-110 -46 -88 -204 29 -205 39 0 88 17 88 32 0 12 -12 9
-34 -7 -19 -14 -61 -11 -79 5 -16 15 -25 81 -16 115 16 58 89 78 111 30 15
-33 25 -32 24 2 -1 15 -7 27 -16 28 -8 2 -29 5 -46 8 -17 2 -44 -1 -61 -8z"/>
<path d="M544 2001 c-34 -21 -72 -67 -97 -116 -19 -40 -55 -143 -61 -178 -12
-71 -17 -71 -42 0 -52 149 -156 177 -217 57 -17 -34 -50 -194 -42 -203 10 -9
38 14 41 35 18 124 62 195 112 180 25 -8 78 -91 106 -166 15 -40 27 -59 30
-50 3 8 17 56 31 105 50 176 123 285 191 285 41 0 82 -46 104 -118 18 -59 25
-102 34 -237 3 -39 3 -40 42 -40 l39 0 -2 65 c-6 161 -73 343 -141 379 -39 21
-96 22 -128 2z"/>
<path d="M2078 2014 c8 -4 12 -35 12 -104 l0 -99 74 1 c67 1 75 3 80 22 9 33
6 42 -7 25 -15 -19 -47 -36 -64 -33 -7 1 -17 2 -21 3 -5 0 -9 19 -10 41 -1 30
2 40 13 40 9 0 20 -10 25 -22 7 -18 9 -11 9 32 1 50 0 53 -12 31 -16 -32 -32
-23 -32 19 0 31 3 35 25 35 14 0 34 -10 47 -24 l22 -25 -2 29 -2 30 -85 2
c-47 1 -79 0 -72 -3z"/>
<path d="M2335 1933 c-20 -49 -44 -96 -53 -106 -15 -16 -14 -17 16 -15 22 2
28 5 21 14 -19 23 1 44 41 44 31 0 40 -4 45 -21 5 -13 2 -25 -6 -29 -7 -5 6
-8 32 -8 l45 0 -26 56 c-15 32 -35 78 -46 104 -10 27 -22 48 -25 48 -4 0 -23
-39 -44 -87z m40 -13 l16 -30 -30 0 c-28 0 -29 1 -18 30 6 17 13 30 14 30 1 0
9 -13 18 -30z"/>
<path d="M2508 2011 c18 -11 19 -180 2 -191 -6 -4 28 -7 76 -6 87 1 88 1 95
28 9 36 -5 45 -20 12 -9 -21 -17 -25 -49 -22 l-37 3 -2 80 c-1 63 2 83 15 93
13 10 7 12 -39 12 -33 0 -49 -4 -41 -9z"/>
<path d="M2680 1993 l0 -27 20 22 c35 37 46 20 45 -74 0 -62 -4 -87 -14 -94
-10 -5 2 -8 33 -8 40 0 46 2 40 16 -5 15 -9 108 -5 165 1 24 18 21 44 -7 l23
-24 -2 26 c-1 27 -1 27 -92 30 l-92 3 0 -28z"/>
<path d="M2908 1929 c2 -52 -1 -95 -7 -103 -8 -9 2 -12 41 -13 35 0 46 3 34 9
-11 6 -16 22 -16 49 l0 40 38 -3 c36 -3 37 -4 35 -42 -2 -22 -8 -43 -14 -47
-6 -3 6 -7 28 -7 l39 -1 -2 95 c-1 78 1 96 15 104 12 7 2 9 -37 10 -45 0 -51
-2 -40 -14 11 -11 14 -37 9 -77 -1 -3 -11 -5 -23 -3 -13 1 -28 3 -34 3 -16 1
-16 74 -1 83 7 4 -6 8 -28 8 l-40 0 3 -91z"/>
<path d="M3415 1944 c-19 -42 -35 -81 -35 -85 0 -5 -9 -18 -19 -28 -19 -19
-18 -19 18 -19 20 0 30 3 24 5 -7 3 -13 16 -13 29 0 21 4 24 40 24 42 0 70
-26 49 -47 -6 -6 5 -10 34 -11 l43 -2 -43 87 c-23 49 -43 93 -43 100 0 37 -23
14 -55 -53z m45 -46 c0 -5 -11 -8 -25 -8 -29 0 -29 0 -13 35 l12 26 13 -23 c7
-13 12 -26 13 -30z"/>
<path d="M3588 2013 c15 -6 17 -174 2 -189 -6 -6 7 -10 36 -11 38 -2 44 0 34
12 -6 7 -10 31 -8 52 l3 38 38 -53 c32 -42 44 -52 68 -52 l30 0 -36 47 c-35
46 -35 46 -15 65 11 10 20 30 20 43 0 39 -35 55 -115 54 -38 0 -64 -3 -57 -6z
m115 -24 c5 -9 7 -28 3 -42 -5 -20 -13 -27 -31 -27 -23 0 -25 4 -25 46 0 41 2
45 21 42 12 -2 26 -10 32 -19z"/>
<path d="M3818 2003 c11 -21 10 -163 -1 -180 -6 -9 13 -12 75 -10 l82 2 7 34
7 34 -21 -25 c-25 -30 -75 -45 -82 -26 -3 7 -7 28 -9 46 -4 37 15 44 37 12 13
-18 14 -15 14 33 0 43 -1 48 -10 30 -5 -13 -14 -23 -19 -23 -4 0 -11 0 -15 0
-10 0 -9 61 2 70 17 14 62 -1 73 -23 10 -20 11 -19 11 11 l1 32 -80 0 c-74 0
-80 -2 -72 -17z"/>
<path d="M1744 1711 c-5 -3 -9 -41 -9 -84 0 -76 0 -77 25 -77 25 0 25 1 22 75
-3 61 -1 75 11 75 21 0 28 -38 10 -56 -22 -22 -9 -28 24 -12 21 10 27 20 25
38 -1 14 -6 27 -10 31 -10 10 -88 18 -98 10z"/>
<path d="M2735 1714 c-6 -2 -9 -36 -9 -76 1 -44 -3 -76 -10 -80 -7 -5 -3 -8 9
-8 18 0 20 6 18 67 l-3 68 21 -45 c12 -25 25 -56 31 -70 9 -24 11 -23 33 30
13 30 24 61 25 69 0 8 3 11 7 7 11 -11 11 -99 0 -113 -7 -10 -2 -13 19 -13
l29 0 1 83 c0 83 0 84 -24 79 -23 -4 -32 -19 -56 -86 -6 -16 -12 -10 -34 35
-26 52 -35 61 -57 53z"/>
<path d="M1878 1608 c-3 -50 -1 -58 15 -58 11 0 17 8 17 23 0 29 7 37 26 30
17 -6 18 -40 2 -46 -7 -3 -1 -6 13 -6 25 -1 26 1 27 57 0 50 -2 58 -18 58 -15
0 -18 -6 -13 -28 5 -23 2 -27 -17 -25 -17 1 -21 6 -18 27 3 19 -1 26 -13 26
-14 0 -18 -11 -21 -58z"/>
<path d="M2010 1658 c0 -5 7 -23 16 -40 9 -17 14 -39 11 -49 -4 -14 0 -19 14
-19 12 0 19 7 19 19 0 11 3 27 7 37 4 12 3 15 -6 10 -7 -5 -15 3 -22 22 -9 26
-39 41 -39 20z"/>
<path d="M2090 1648 c-12 -22 -12 -22 6 -6 10 10 15 20 12 24 -4 3 -12 -5 -18
-18z"/>
<path d="M2143 1663 c-26 -10 -14 -52 18 -68 25 -13 28 -19 18 -31 -8 -9 -8
-14 -1 -14 15 0 31 31 25 48 -3 7 -18 19 -35 28 -24 12 -27 18 -17 30 12 15
11 15 -8 7z"/>
<path d="M2170 1666 c0 -2 7 -9 15 -16 9 -7 15 -8 15 -2 0 5 -7 12 -15 16 -8
3 -15 4 -15 2z"/>
<path d="M2231 1618 c0 -27 -3 -54 -6 -59 -4 -5 4 -9 17 -9 22 0 23 3 20 58
-3 40 -8 59 -17 59 -8 0 -13 -17 -14 -49z"/>
<path d="M2314 1652 c-12 -9 -24 -24 -26 -32 -8 -24 20 -70 43 -70 19 0 19 1
5 16 -19 18 -21 65 -4 82 19 19 5 22 -18 4z"/>
<path d="M2351 1667 c2 -1 14 -11 27 -21 12 -11 22 -16 22 -13 0 10 -31 37
-42 37 -6 0 -9 -1 -7 -3z"/>
<path d="M2545 1656 c-2 -6 -3 -24 -1 -41 1 -16 -2 -38 -7 -47 -7 -16 -2 -18
43 -18 40 0 50 3 50 17 0 13 -3 14 -12 5 -7 -7 -21 -12 -31 -12 -17 0 -18 6
-15 53 2 40 0 54 -10 54 -8 0 -15 -5 -17 -11z"/>
<path d="M2949 1617 c2 -34 -1 -52 -10 -58 -10 -6 -6 -9 14 -9 23 0 27 4 27
26 0 19 4 25 14 21 10 -4 14 0 13 13 -1 14 -4 16 -14 8 -10 -8 -13 -7 -14 3
-1 8 -2 20 -3 28 0 8 -8 15 -16 16 -12 2 -14 -7 -11 -48z"/>
<path d="M2990 1658 c0 -6 3 -8 7 -5 3 4 12 2 20 -4 8 -7 13 -8 13 -1 0 5 -7
13 -16 16 -22 8 -24 8 -24 -6z"/>
<path d="M3065 1656 c-2 -6 -5 -32 -7 -58 -3 -42 -1 -48 17 -48 18 0 20 5 17
55 -4 59 10 74 29 31 8 -18 8 -33 1 -55 -10 -29 -10 -31 8 -21 36 19 34 97 -3
101 -7 1 -22 3 -35 4 -13 1 -25 -3 -27 -9z"/>
<path d="M3186 1661 c-1 -3 -2 -26 -1 -51 2 -25 -3 -48 -9 -52 -6 -5 0 -8 14
-8 24 0 25 3 26 58 0 44 -3 59 -13 59 -8 0 -15 -3 -17 -6z"/>
<path d="M3275 1658 c-40 -22 -47 -64 -17 -91 26 -24 50 -23 29 1 -21 24 -22
56 -1 77 21 20 15 27 -11 13z"/>
<path d="M3336 1662 c-2 -4 -1 -14 5 -22 7 -12 9 -10 9 8 0 23 -5 28 -14 14z"/>
<path d="M3374 1608 c1 -46 4 -58 16 -58 12 0 16 12 15 59 0 47 -3 59 -16 58
-12 -1 -15 -14 -15 -59z"/>
<path d="M3438 1643 c3 -16 7 -22 10 -15 2 7 18 -6 38 -33 19 -25 37 -45 39
-45 3 0 5 14 5 32 0 17 -3 28 -6 25 -4 -4 -18 8 -33 26 -35 43 -60 47 -53 10z"/>
<path d="M3517 1663 c-3 -5 -1 -17 4 -28 7 -17 8 -17 8 8 1 27 -4 34 -12 20z"/>
<path d="M3569 1668 c-1 -2 -2 -29 -3 -60 -1 -48 1 -58 15 -58 12 0 15 7 13
26 -2 19 1 24 12 20 10 -4 14 2 13 17 0 12 -3 16 -6 10 -8 -20 -22 -15 -20 7
1 11 6 20 12 20 5 0 3 5 -5 10 -14 9 -29 13 -31 8z"/>
<path d="M3620 1660 c0 -13 18 -22 24 -11 3 5 -1 11 -9 15 -8 3 -15 1 -15 -4z"/>
<path d="M2454 1644 c-4 -10 -9 -23 -12 -28 -3 -5 1 -6 8 -1 10 6 12 3 8 -13
-4 -12 -2 -20 2 -17 5 3 11 -4 15 -15 3 -11 15 -20 25 -20 18 0 18 3 -4 51
-29 62 -34 67 -42 43z"/>
<path d="M2422 1575 c-9 -19 -9 -25 1 -25 6 0 13 11 13 25 2 31 0 31 -14 0z"/>
<path d="M3020 1571 c0 -5 -8 -12 -17 -14 -14 -4 -13 -5 4 -6 24 -1 39 14 23
24 -5 3 -10 2 -10 -4z"/>
<path d="M3436 1565 c-3 -9 0 -15 9 -15 9 0 12 6 9 15 -4 8 -7 15 -9 15 -2 0
-5 -7 -9 -15z"/>
<path d="M3626 1565 c-19 -15 -19 -15 2 -15 13 0 22 6 22 15 0 18 0 18 -24 0z"/>
<path d="M2124 1563 c10 -11 37 -12 30 -2 -3 5 -12 9 -21 9 -9 0 -13 -3 -9 -7z"/>
<path d="M3320 1560 c-9 -6 -10 -10 -3 -10 6 0 15 5 18 10 8 12 4 12 -15 0z"/>
</g>
</svg>
